<?xml version="1.0" standalone="yes"?>

<svg version="1.1" viewBox="0.0 0.0 800.0 600.0" fill="none" stroke="none" stroke-linecap="square" stroke-miterlimit="10" xmlns="http://www.w3.org/2000/svg" xmlns:xlink="http://www.w3.org/1999/xlink"><clipPath id="p.0"><path d="m0 0l800.0 0l0 600.0l-800.0 0l0 -600.0z" clip-rule="nonzero"></path></clipPath><g clip-path="url(#p.0)"><path fill="#000000" fill-opacity="0.0" d="m0 0l800.0 0l0 600.0l-800.0 0z" fill-rule="evenodd"></path><path fill="#ead1dc" d="m363.82657 86.47769l0 0c0 -41.4431 36.18387 -75.03937 80.81891 -75.03937l0 0c44.63504 0 80.81888 33.59627 80.81888 75.03937l0 0c0 41.4431 -36.183838 75.03937 -80.81888 75.03937l0 0c-44.63504 0 -80.81891 -33.596268 -80.81891 -75.03937z" fill-rule="evenodd"></path><path stroke="#000000" stroke-width="1.0" stroke-linejoin="round" stroke-linecap="butt" d="m363.82657 86.47769l0 0c0 -41.4431 36.18387 -75.03937 80.81891 -75.03937l0 0c44.63504 0 80.81888 33.59627 80.81888 75.03937l0 0c0 41.4431 -36.183838 75.03937 -80.81888 75.03937l0 0c-44.63504 0 -80.81891 -33.596268 -80.81891 -75.03937z" fill-rule="evenodd"></path><path fill="#000000" d="m431.58456 91.27769l0 -9.3125l4.125 0q1.25 0 1.890625 0.265625q0.65625 0.25 1.046875 0.890625q0.390625 0.625 0.390625 1.390625q0 0.984375 -0.65625 1.671875q-0.640625 0.671875 -1.96875 0.859375q0.484375 0.234375 0.734375 0.46875q0.546875 0.484375 1.03125 1.234375l1.609375 2.53125l-1.546875 0l-1.234375 -1.9375q-0.53125 -0.84375 -0.890625 -1.28125q-0.34375 -0.4375 -0.625 -0.609375q-0.265625 -0.1875 -0.546875 -0.265625q-0.21875 -0.03125 -0.6875 -0.03125l-1.4375 0l0 4.125l-1.234375 0zm1.234375 -5.203125l2.65625 0q0.84375 0 1.3125 -0.171875q0.484375 -0.171875 0.71875 -0.546875q0.25 -0.390625 0.25 -0.84375q0 -0.65625 -0.484375 -1.078125q-0.46875 -0.4375 -1.5 -0.4375l-2.953125 0l0 3.078125zm7.8126526 1.828125q0 -1.875 1.03125 -2.765625q0.875 -0.75 2.125 -0.75q1.390625 0 2.265625 0.90625q0.890625 0.90625 0.890625 2.515625q0 1.296875 -0.390625 2.046875q-0.390625 0.75 -1.140625 1.171875q-0.75 0.40625 -1.625 0.40625q-1.421875 0 -2.296875 -0.90625q-0.859375 -0.90625 -0.859375 -2.625zm1.171875 0q0 1.296875 0.5625 1.953125q0.5625 0.640625 1.421875 0.640625q0.84375 0 1.40625 -0.640625q0.578125 -0.65625 0.578125 -1.984375q0 -1.25 -0.578125 -1.890625q-0.5625 -0.65625 -1.40625 -0.65625q-0.859375 0 -1.421875 0.640625q-0.5625 0.640625 -0.5625 1.9375zm6.2406006 0q0 -1.875 1.03125 -2.765625q0.875 -0.75 2.125 -0.75q1.390625 0 2.265625 0.90625q0.890625 0.90625 0.890625 2.515625q0 1.296875 -0.390625 2.046875q-0.390625 0.75 -1.140625 1.171875q-0.75 0.40625 -1.625 0.40625q-1.421875 0 -2.296875 -0.90625q-0.859375 -0.90625 -0.859375 -2.625zm1.171875 0q0 1.296875 0.5625 1.953125q0.5625 0.640625 1.421875 0.640625q0.84375 0 1.40625 -0.640625q0.578125 -0.65625 0.578125 -1.984375q0 -1.25 -0.578125 -1.890625q-0.5625 -0.65625 -1.40625 -0.65625q-0.859375 0 -1.421875 0.640625q-0.5625 0.640625 -0.5625 1.9375zm9.162476 2.359375l0.15625 1.0q-0.484375 0.109375 -0.859375 0.109375q-0.625 0 -0.96875 -0.203125q-0.34375 -0.203125 -0.484375 -0.515625q-0.140625 -0.328125 -0.140625 -1.34375l0 -3.890625l-0.828125 0l0 -0.875l0.828125 0l0 -1.671875l1.140625 -0.6875l0 2.359375l1.15625 0l0 0.875l-1.15625 0l0 3.953125q0 0.484375 0.0625 0.625q0.0625 0.140625 0.1875 0.21875q0.140625 0.078125 0.390625 0.078125q0.203125 0 0.515625 -0.03125z" fill-rule="nonzero"></path><path fill="#cfe2f3" d="m254.1998 303.92407l0 0c0 -32.937042 28.752472 -59.637787 64.22046 -59.637787l0 0c35.468018 0 64.22049 26.700745 64.22049 59.637787l0 0c0 32.937073 -28.752472 59.637817 -64.22049 59.637817l0 0c-35.467987 0 -64.22046 -26.700745 -64.22046 -59.637817z" fill-rule="evenodd"></path><path stroke="#000000" stroke-width="1.0" stroke-linejoin="round" stroke-linecap="butt" d="m254.1998 303.92407l0 0c0 -32.937042 28.752472 -59.637787 64.22046 -59.637787l0 0c35.468018 0 64.22049 26.700745 64.22049 59.637787l0 0c0 32.937073 -28.752472 59.637817 -64.22049 59.637817l0 0c-35.467987 0 -64.22046 -26.700745 -64.22046 -59.637817z" fill-rule="evenodd"></path><path fill="#000000" d="m312.2766 310.8441l5.265625 -7.09375l-4.640625 -6.5l2.140625 0l2.46875 3.484375q0.78125 1.078125 1.09375 1.671875q0.453125 -0.75 1.078125 -1.546875l2.734375 -3.609375l1.96875 0l-4.78125 6.40625l5.140625 7.1875l-2.21875 0l-3.421875 -4.859375q-0.296875 -0.40625 -0.59375 -0.90625q-0.453125 0.75 -0.65625 1.03125l-3.40625 4.734375l-2.171875 0z" fill-rule="nonzero"></path><path fill="#cfe2f3" d="m525.47687 303.92407l0 0c0 -32.937042 28.752502 -59.637787 64.22046 -59.637787l0 0c35.468018 0 64.22046 26.700745 64.22046 59.637787l0 0c0 32.937073 -28.752441 59.637817 -64.22046 59.637817l0 0c-35.467957 0 -64.22046 -26.700745 -64.22046 -59.637817z" fill-rule="evenodd"></path><path stroke="#000000" stroke-width="1.0" stroke-linejoin="round" stroke-linecap="butt" d="m525.47687 303.92407l0 0c0 -32.937042 28.752502 -59.637787 64.22046 -59.637787l0 0c35.468018 0 64.22046 26.700745 64.22046 59.637787l0 0c0 32.937073 -28.752441 59.637817 -64.22046 59.637817l0 0c-35.467957 0 -64.22046 -26.700745 -64.22046 -59.637817z" fill-rule="evenodd"></path><path fill="#000000" d="m583.3332 310.8441l0 -13.59375l2.71875 0l3.21875 9.625q0.4375 1.34375 0.640625 2.015625q0.234375 -0.75 0.734375 -2.1875l3.25 -9.453125l2.421875 0l0 13.59375l-1.734375 0l0 -11.390625l-3.953125 11.390625l-1.625 0l-3.9375 -11.578125l0 11.578125l-1.734375 0z" fill-rule="nonzero"></path><path fill="#cfe2f3" d="m135.07489 505.98224l0 0c0 -32.937042 28.752487 -59.637787 64.220474 -59.637787l0 0c35.467987 0 64.220474 26.700745 64.220474 59.637787l0 0c0 32.937073 -28.752487 59.637817 -64.220474 59.637817l0 0c-35.467987 0 -64.220474 -26.700745 -64.220474 -59.637817z" fill-rule="evenodd"></path><path stroke="#000000" stroke-width="1.0" stroke-linejoin="round" stroke-linecap="butt" d="m135.07489 505.98224l0 0c0 -32.937042 28.752487 -59.637787 64.220474 -59.637787l0 0c35.467987 0 64.220474 26.700745 64.220474 59.637787l0 0c0 32.937073 -28.752487 59.637817 -64.220474 59.637817l0 0c-35.467987 0 -64.220474 -26.700745 -64.220474 -59.637817z" fill-rule="evenodd"></path><path fill="#000000" d="m198.37045 512.9022l0 -5.7655945l-5.234375 -7.828125l2.1875 0l2.671875 4.09375q0.75 1.15625 1.390625 2.296875q0.609375 -1.0625 1.484375 -2.40625l2.625 -3.984375l2.109375 0l-5.4375 7.828125l0 5.7655945l-1.796875 0z" fill-rule="nonzero"></path><path fill="#cfe2f3" d="m373.3247 505.98224l0 0c0 -32.937042 28.752472 -59.637787 64.22046 -59.637787l0 0c35.467987 0 64.22049 26.700745 64.22049 59.637787l0 0c0 32.937073 -28.752502 59.637817 -64.22049 59.637817l0 0c-35.467987 0 -64.22046 -26.700745 -64.22046 -59.637817z" fill-rule="evenodd"></path><path stroke="#000000" stroke-width="1.0" stroke-linejoin="round" stroke-linecap="butt" d="m373.3247 505.98224l0 0c0 -32.937042 28.752472 -59.637787 64.22046 -59.637787l0 0c35.467987 0 64.22049 26.700745 64.22049 59.637787l0 0c0 32.937073 -28.752502 59.637817 -64.22049 59.637817l0 0c-35.467987 0 -64.22046 -26.700745 -64.22046 -59.637817z" fill-rule="evenodd"></path><path fill="#000000" d="m432.2222 512.9022l0 -1.6718445l6.96875 -8.703125q0.75 -0.9375 1.421875 -1.625l-7.59375 0l0 -1.59375l9.734375 0l0 1.59375l-7.625 9.4375l-0.828125 0.953125l8.6875 0l0 1.6093445l-10.765625 0z" fill-rule="nonzero"></path><path fill="#000000" fill-opacity="0.0" d="m387.4979 139.53854l-69.07086 104.755905" fill-rule="evenodd"></path><path stroke="#000000" stroke-width="1.0" stroke-linejoin="round" stroke-linecap="butt" d="m387.4979 139.53854l-69.07086 104.755905" fill-rule="evenodd"></path><path fill="#000000" fill-opacity="0.0" d="m273.00955 346.09436l-73.700806 100.25198" fill-rule="evenodd"></path><path stroke="#000000" stroke-width="1.0" stroke-linejoin="round" stroke-linecap="butt" d="m273.00955 346.09436l-73.700806 100.25198" fill-rule="evenodd"></path><path fill="#000000" fill-opacity="0.0" d="m501.79306 139.53854l87.90555 104.755905" fill-rule="evenodd"></path><path stroke="#000000" stroke-width="1.0" stroke-linejoin="round" stroke-linecap="butt" d="m501.79306 139.53854l87.90555 104.755905" fill-rule="evenodd"></path><path fill="#000000" fill-opacity="0.0" d="m363.831 346.09436l73.700806 100.25198" fill-rule="evenodd"></path><path stroke="#000000" stroke-width="1.0" stroke-linejoin="round" stroke-linecap="butt" d="m363.831 346.09436l73.700806 100.25198" fill-rule="evenodd"></path></g></svg>

